<svg width="26" height="26" viewBox="0 0 26 26" fill="none" xmlns="http://www.w3.org/2000/svg">
<rect width="26" height="26" rx="13" fill="#1AC057"/>
<path fill-rule="evenodd" clip-rule="evenodd" d="M11.6 8.80002C10.0536 8.80002 8.80002 10.0536 8.80002 11.6C8.80002 13.1464 10.0536 14.4 11.6 14.4C13.1464 14.4 14.4 13.1464 14.4 11.6C14.4 10.0536 13.1464 8.80002 11.6 8.80002ZM7.40002 11.6C7.40002 9.28043 9.28043 7.40002 11.6 7.40002C13.9196 7.40002 15.8 9.28043 15.8 11.6C15.8 12.5071 15.5125 13.347 15.0235 14.0336L18.395 17.4051C18.6684 17.6784 18.6684 18.1216 18.395 18.395C18.1216 18.6684 17.6784 18.6684 17.4051 18.395L14.0336 15.0235C13.347 15.5125 12.5071 15.8 11.6 15.8C9.28043 15.8 7.40002 13.9196 7.40002 11.6Z" fill="white"/>
</svg>
